PathFileType	4	(X/Y/Z)	C:\Users\°ÂÌØÂü\Desktop\20210112\bx_y_0_502-Unnamed.trc
DataRate	CameraRate	NumFrames	NumMarkers	Units	OrigDataRate	OrigDataStartFrame	OrigNumFrames
50.00	50.00	       4	0	mm	50.00	351	       560
Frame#	Time	
		

351	7.000	-772.01074	113.17908	1849.42249	-756.72479	303.27759	1536.53845	-659.26917	296.93851	883.14600	-595.82111	11.00308	811.91589	-814.98956	109.86911	1048.71753	-737.06720	256.88077	639.98895	-613.59167	234.52245	1078.84998	-680.71484	214.12968	535.95001	-775.56281	260.05005	502.44034	-663.93195	-67.78062	162.44272	-517.96875	-72.22891	142.60378				-604.86078	17.91177	170.40746	-676.34076	52.95568	160.23979	-711.28485	154.35464	217.63416	-796.65240	172.53212	184.00508	-771.76001	223.81860	204.06261	-594.85052	221.99207	173.45943	-882.53809	296.11121	144.65492	-559.82721	257.31226	165.77892	-667.04358	299.61337	159.62842	-629.33325	305.90256	162.50876	-528.04419	304.62152	146.80469	-735.12061	-59.35170	1543.84485	-596.52332	231.12770	822.24628	-767.53650	-7.66027	208.97011	-796.00104	53.43271	174.61879	-757.87817	-29.90675	490.43832	-560.09204	-37.23324	164.35190	-876.02838	-78.54763	141.55200	-616.07440	7.65138	1058.82715	-700.48792	-21.65335	613.89996	-709.30615	-19.06449	569.07104	-675.99072	174.86578	158.36731	-622.34161	-77.24427	159.35754	-683.33124	-43.70860	736.93494				-665.27393	-59.33540	869.79840	-693.64532	153.42645	578.78644	-660.69861	24.03676	520.16089	-714.60309	75.90020	216.87907				-737.39795	253.72224	576.84338				-682.60358	86.64801	575.16034	
352	7.020	-771.68475	112.59422	1849.57788	-757.15051	302.86023	1536.57825	-659.83875	296.49802	882.72638	-595.49280	11.08067	811.99670	-814.88275	109.62563	1048.64978	-737.50006	257.02856	640.47998	-613.83923	234.42822	1078.79797	-680.84937	214.16118	535.89270	-775.72601	259.95786	502.41647	-663.88531	-67.72752	162.32166	-517.79254	-72.82345	142.98775				-604.80511	17.89093	170.17677	-676.44873	53.16902	160.07176	-711.23254	154.53110	217.52258	-796.61865	172.76804	184.10762	-771.83777	223.79408	204.73746	-594.94421	221.93394	173.42125	-882.57581	295.99649	144.46762	-559.73804	257.17685	165.83537	-667.10834	299.60376	159.53885	-629.32806	305.87234	162.37695	-528.11536	304.45233	146.53067	-734.68073	-59.90069	1543.77759	-596.74243	231.17830	822.25525	-767.34772	-7.72685	209.09178	-795.93652	53.37716	174.71635	-757.82928	-30.03389	490.37961	-560.28320	-37.11138	164.32762	-876.02838	-78.54763	141.55200	-616.03760	7.74912	1058.61047	-700.07837	-21.94591	614.37372	-709.02417	-19.23935	569.04114	-675.99072	174.86578	158.36731	-622.29840	-77.30171	159.41234	-683.09131	-43.97724	737.07996				-665.10315	-59.13565	869.64764	-693.88098	153.37733	578.55579	-660.59937	24.40944	520.03772	-714.66205	75.80654	216.67407				-737.45520	253.58734	576.78607				-682.86279	86.37955	574.97150	
353	7.040	-771.13019	111.92292	1849.48853	-757.22003	302.47372	1536.73975	-659.96289	296.49142	882.73102	-595.40741	11.20187	812.01587	-814.74854	109.37447	1048.56091	-737.65747	256.79150	640.25189	-614.15057	234.45699	1078.76843	-680.86969	214.31117	535.84583	-775.78632	259.81699	502.41864	-663.83533	-67.55551	162.26001	-517.95264	-72.42954	142.62364				-604.75647	17.98966	170.19797	-675.99078	53.33276	160.30852	-711.30231	154.29599	217.59830	-796.50690	172.57541	184.07401	-771.75281	223.75711	204.29710	-594.85425	222.07071	173.51730	-882.60889	296.25076	144.74420	-560.02130	257.25909	165.71465	-667.05780	299.46054	159.70258	-629.26160	305.85181	162.31546	-528.09106	304.70688	146.64671	-734.42700	-60.04319	1543.69104	-596.83569	231.23132	822.24420	-767.28418	-7.64821	208.93498	-795.90112	53.48578	174.60419	-757.57416	-30.18720	490.40781	-560.28320	-37.11138	164.32762	-876.02838	-78.54763	141.55200	-615.87433	7.64122	1058.59473	-700.00439	-21.87282	614.18079	-708.88409	-19.32355	568.63696	-676.13361	174.94533	158.21658	-622.35803	-77.37064	159.42354	-682.81824	-43.80592	736.64612				-664.96613	-59.06063	869.59827	-693.64532	153.42645	578.78644	-660.61859	24.12946	520.04230	-714.66205	75.80654	216.67407				-737.54266	253.47116	576.64783				-682.52313	86.63964	575.27020	
354	7.060	-770.77460	111.33998	1849.55652	-757.46765	302.27386	1536.81970	-660.18481	296.53644	882.86823	-595.19110	11.41157	812.12518	-814.69818	108.98405	1048.70837	-737.76880	256.78091	640.29901	-614.39325	234.27019	1078.87683	-680.75977	214.01170	535.74823	-775.75360	259.77347	502.50922	-663.78113	-67.54877	162.40248	-517.93469	-72.52035	142.97194				-604.87195	17.91799	170.04796	-676.24207	53.24688	160.07074	-711.23254	154.53110	217.52258	-796.57556	172.34830	184.16698	-771.92731	223.71011	204.60724	-594.87445	221.90297	173.48805	-882.50659	296.28424	144.83293	-559.82721	257.31226	165.77892	-667.04541	299.52264	159.60674	-629.26312	305.91168	162.64275	-528.17224	304.85693	146.67305	-734.04535	-60.48298	1543.27014	-597.15057	231.41103	822.30078	-767.20825	-7.86409	208.96950	-796.00104	53.43271	174.61879	-757.47485	-30.41670	490.36313	-560.22968	-37.08229	164.25513	-876.04663	-78.59055	141.48270	-615.45349	7.47118	1058.78662	-699.65820	-22.02525	614.59222	-708.81042	-19.39160	568.67456	-676.13361	174.94533	158.21658	-622.40576	-77.20835	159.28407	-682.68713	-43.93872	736.82971				-664.80609	-59.24326	869.58527	-693.48981	153.38774	578.71692	-660.40143	24.17739	520.13428	-714.66205	75.80654	216.67407				-737.54266	253.47116	576.64783				-682.70032	86.33705	574.91418	
